<svg xmlns="http://www.w3.org/2000/svg" viewBox="0 0 1600 900" preserveAspectRatio="xMidYMid slice">
  <defs>
    <linearGradient id="b" x1="0" y1="0" x2="0" y2="1"><stop offset="0" stop-color="#0a1020"/><stop offset="0.6" stop-color="#243a5e"/><stop offset="1" stop-color="#3a4f73"/></linearGradient>
    <radialGradient id="g" cx="50%" cy="60%" r="50%"><stop offset="0" stop-color="#f5b820" stop-opacity="0.28"/><stop offset="1" stop-color="#f5b820" stop-opacity="0"/></radialGradient>
  </defs>
  <rect width="1600" height="900" fill="url(#b)"/>
  <path d="M0 560 q400 -70 800 0 t800 0 V900 H0 Z" fill="#16223a"/>
  <rect width="1600" height="900" fill="url(#g)"/>
  <!-- road -->
  <path d="M700 560 L760 560 L920 900 L520 900 Z" fill="#0a0f1a"/>
  <g fill="#f5b820"><rect x="724" y="575" width="10" height="26" rx="3"/><rect x="720" y="630" width="14" height="34" rx="3"/><rect x="715" y="700" width="20" height="44" rx="4"/></g>
  <!-- map pin markers (miqat points) -->
  <g fill="#f5b820"><path d="M1140 300 a44 44 0 1 0 -88 0 q0 50 44 96 q44-46 44-96 Z"/><circle cx="1096" cy="300" r="18" fill="#0a0f1a"/></g>
  <g fill="#f5b820" opacity="0.7"><path d="M420 360 a30 30 0 1 0 -60 0 q0 34 30 64 q30-30 30-64 Z"/><circle cx="390" cy="360" r="12" fill="#0a0f1a"/></g>
  <rect x="0" y="700" width="1600" height="200" fill="#070b14" opacity="0.5"/>
</svg>
